<svg version="1.1" xmlns="http://www.w3.org/2000/svg" viewBox="0 0 500 500">
  <path fill="#3EA556" stroke="none" d="
M191.000000,422.964050
	C152.175949,422.939819 113.851906,422.920624 75.527855,422.889679
	C66.164993,422.882111 64.199577,420.940094 64.019852,411.434021
	C63.934834,406.937164 63.834816,402.431305 64.019424,397.940979
	C64.260910,392.067169 66.338547,389.771210 72.228157,389.349670
	C76.188972,389.066254 80.216156,389.362183 84.190430,389.684814
	C93.417183,390.433929 95.383385,389.284149 98.839302,380.598877
	C132.820084,295.199921 166.800613,209.800812 200.787201,124.404144
	C201.402420,122.858345 202.062195,121.328674 202.750031,119.813652
	C205.358429,114.068512 205.003326,113.609329 199.413376,110.844788
	C197.906494,110.099564 196.433884,107.709305 196.328568,105.989464
	C195.952469,99.847160 196.006378,93.662941 196.212341,87.505112
	C196.406815,81.691101 199.198288,79.069527 205.088501,79.059181
	C235.747665,79.005341 266.407043,78.998947 297.066162,79.054253
	C303.554779,79.065956 305.963257,81.935020 305.811493,88.406395
	C305.714111,92.556915 305.939087,96.721756 306.172729,100.871559
	C306.463440,106.033806 304.835938,110.098358 299.856689,112.213203
	C297.230347,113.328697 297.004517,114.852592 298.001587,117.341049
	C324.568054,183.644592 351.093018,249.964798 377.593689,316.294678
	C385.624512,336.395477 393.571106,356.529999 401.539703,376.655609
	C406.081024,388.125214 410.920624,390.976196 423.033417,389.254395
	C423.692963,389.160675 424.356628,389.093018 425.019836,389.028625
	C434.651428,388.093323 437.430054,390.314484 437.962799,400.086243
	C438.242950,405.225220 438.205872,410.433868 437.696442,415.549774
	C437.102814,421.511536 435.239594,422.910278 429.191650,422.922791
	C403.531464,422.975861 377.871185,422.987732 352.210938,422.996246
	C330.382904,423.003479 308.554779,423.015991 286.726837,422.966064
	C275.553864,422.940521 272.215210,419.945801 270.848511,408.854889
	C270.482513,405.884979 270.198212,402.887268 270.154846,399.898315
	C269.958801,386.392181 276.304108,377.339539 288.596741,371.771301
	C295.373688,368.701508 301.945984,364.946655 308.070190,360.718018
	C320.597137,352.068390 320.134094,338.955963 314.219452,324.786407
	C312.995056,321.853149 310.396332,321.680450 307.908386,323.130829
	C293.376251,331.602509 278.767639,339.954559 264.450592,348.778290
	C258.407990,352.502441 256.744263,358.961273 256.748810,365.788208
	C256.757874,379.451477 256.806183,393.114746 256.836212,406.778015
	C256.840607,408.777527 256.854065,410.777313 256.827728,412.776489
	C256.741730,419.302368 255.009048,421.926392 250.849854,421.869110
	C246.836456,421.813843 245.252365,419.456177 245.229965,413.036011
	C245.182266,399.373322 244.691742,385.683258 245.382004,372.055023
	C246.072540,358.422211 240.871170,349.276886 228.690979,343.049835
	C217.288605,337.220459 206.470947,330.246918 195.399612,323.770660
	C188.602982,319.794983 187.216721,320.466125 186.331329,328.054901
	C185.868347,332.023193 185.232635,335.971039 184.738571,339.936035
	C183.341217,351.150513 186.737335,357.919586 196.668121,363.476349
	C204.080109,367.623718 211.426346,371.922333 219.043015,375.662537
	C231.474854,381.767303 234.996567,406.385468 229.845337,415.995789
	C227.234695,420.866333 222.959457,422.998871 217.492630,422.978485
	C208.828522,422.946198 200.164215,422.966614 191.000000,422.964050
M193.549805,300.778778
	C195.787033,306.818024 199.805664,311.109680 205.478500,314.284576
	C216.080429,320.217957 226.409851,326.636017 236.935562,332.708679
	C242.428635,335.877838 245.339523,334.897461 245.508575,329.842316
	C245.719284,323.540131 245.613403,317.208954 245.263794,310.911407
	C244.889908,304.176727 241.698410,298.989258 235.916779,295.277100
	C224.150208,287.722137 212.500900,279.984680 200.788788,272.344604
	C196.425415,269.498291 195.082687,269.839569 193.033310,274.704376
	C189.474731,283.151642 190.462692,291.628265 193.549805,300.778778
M309.100220,279.470093
	C308.789062,278.176178 308.551544,276.859161 308.153625,275.592499
	C306.662811,270.846436 304.655304,269.993256 300.436676,272.682953
	C289.636505,279.568939 278.860809,286.497467 268.198700,293.594330
	C261.053375,298.350372 256.311646,304.823944 256.120728,313.742188
	C256.006927,319.056213 256.284424,324.393219 256.669312,329.699341
	C257.075317,335.296692 258.329651,336.076874 263.179962,333.357239
	C274.064911,327.253967 285.031525,321.245789 295.539459,314.532898
	C310.296112,305.105743 313.018402,297.586029 309.100220,279.470093
M261.739563,282.551880
	C272.569824,275.378815 283.350891,268.129883 294.248505,261.060669
	C300.939026,256.720520 303.971497,250.819626 303.005005,242.867432
	C301.607727,231.370850 300.253662,219.868988 298.814850,207.813782
	C293.702362,221.678513 290.432617,226.078705 280.519073,232.488846
	C277.723389,234.296524 274.788391,235.887604 271.973999,237.667664
	C255.779556,247.910355 253.229187,263.731079 256.626190,279.582245
	C257.111359,281.846100 258.021423,283.840729 261.739563,282.551880
M231.229218,238.223938
	C227.939560,236.278809 224.647873,234.337082 221.360641,232.387878
	C213.061020,227.466599 206.606674,221.080887 204.482834,211.221085
	C204.405548,210.862274 203.815262,210.613953 202.679031,209.644073
	C201.332550,222.182739 199.951111,234.041855 198.830490,245.925568
	C198.306381,251.483704 200.528824,255.938171 205.285934,259.096619
	C216.913513,266.816742 228.487991,274.616791 240.116867,282.334930
	C241.400604,283.186951 242.898590,283.716156 244.836746,284.656982
	C247.243347,266.783630 247.423004,250.477722 231.229218,238.223938
M242.072876,223.383102
	C243.946503,225.718140 245.747406,228.116699 247.714630,230.370026
	C249.606750,232.537323 251.808762,232.572784 253.770355,230.499222
	C262.449829,221.324341 269.377045,210.952255 265.725159,197.833862
	C262.237793,185.306458 256.873047,173.301666 252.333542,161.067139
	C251.752472,161.081924 251.171402,161.096695 250.590332,161.111465
	C246.508453,170.544830 242.259720,179.910309 238.387360,189.428909
	C233.662704,201.042511 234.674942,212.242264 242.072876,223.383102
z"/>
</svg>
